PathFileType	4	(X/Y/Z)	s08c0101.trc
DataRate	CameraRate	NumFrames	NumMarkers	Units	OrigDataRate	OrigDataStartFrame	OrigNumFrames
200	200	4	50	mm	200	1000	2000
Frame#	Time	racr			lacr			c7			jug			rlel			rdr			llel			ldr			s2			lic			ric			lasi			rasi			rpsi			lpsi			rgt			lgt			rth1			rth2			rth3			rth4			rlfc			rmfc			rsh1			rsh2			rsh3			rsh4			rlmal			rmmal			rcal			rtoe			rmt5			lth1			lth2			lth4			lth3			llfc			lmfc			llmal			lmmal			lcal			lmt5			lsh1			lsh2			lsh3			lsh4			ltoe			SBIKE			LBIKE			RBIKE			
		X1	Y1	Z1	X2	Y2	Z2	X3	Y3	Z3	X4	Y4	Z4	X5	Y5	Z5	X6	Y6	Z6	X7	Y7	Z7	X8	Y8	Z8	X9	Y9	Z9	X10	Y10	Z10	X11	Y11	Z11	X12	Y12	Z12	X13	Y13	Z13	X14	Y14	Z14	X15	Y15	Z15	X16	Y16	Z16	X17	Y17	Z17	X18	Y18	Z18	X19	Y19	Z19	X20	Y20	Z20	X21	Y21	Z21	X22	Y22	Z22	X23	Y23	Z23	X24	Y24	Z24	X25	Y25	Z25	X26	Y26	Z26	X27	Y27	Z27	X28	Y28	Z28	X29	Y29	Z29	X30	Y30	Z30	X31	Y31	Z31	X32	Y32	Z32	X33	Y33	Z33	X34	Y34	Z34	X35	Y35	Z35	X36	Y36	Z36	X37	Y37	Z37	X38	Y38	Z38	X39	Y39	Z39	X40	Y40	Z40	X41	Y41	Z41	X42	Y42	Z42	X43	Y43	Z43	X44	Y44	Z44	X45	Y45	Z45	X46	Y46	Z46	X47	Y47	Z47	X48	Y48	Z48	X49	Y49	Z49	X50	Y50	Z50	
1000	5.0000	543.736027	1347.614778	-57.200364	541.769052	1306.199095	-409.759350	534.964151	1412.774217	-243.526607	449.828910	1278.181843	-227.224551	570.288792	1102.259490	41.114756	784.126274	903.252261	-56.824633	549.342520	1040.586763	-507.273395	787.940508	901.345119	-438.544329	-20.335837	1206.942326	-217.202566	131.269276	1209.318719	-373.587106	137.324828	1219.027887	-51.960001	162.334419	1169.465748	-329.192484	169.727086	1163.487435	-86.489439	14.887284	1248.132872	-166.340617	10.335705	1253.177955	-262.730683	68.671142	1090.454413	-35.208363	106.550199	1107.150334	-407.080008	170.532691	947.634647	-24.453859	236.317476	887.526028	-26.957204	263.394810	805.749315	-40.521419	267.147878	908.137573	-31.267326	332.776131	708.787600	-54.730920	314.536137	695.021492	-163.115811	302.241379	579.047476	-24.628064	329.126841	495.172803	-42.010782	310.000256	411.043877	-50.035891	357.700168	500.888712	-71.038472	306.424846	290.865730	-58.153559	320.865833	314.169978	-145.845092	231.495448	259.948531	-105.382812	525.048086	258.145187	-114.033781	442.578384	220.129251	-41.554201	214.576979	1027.922950	-400.921264	296.536216	999.671655	-389.815581	314.453803	1027.236442	-373.414420	355.228369	932.491968	-387.256483	426.193126	832.617458	-364.689787	414.041016	798.831362	-259.231613	119.788183	552.835724	-395.870327	151.729841	544.144226	-311.629977	56.738424	573.407220	-356.271745	170.819255	393.512780	-420.498100	342.194276	742.789292	-393.249636	291.919723	673.180862	-382.870514	214.263212	633.063243	-390.913814	308.388292	656.563951	-351.380275	252.065904	360.724915	-353.389450	-138.627565	945.848891	-226.095152	18.450945	81.048241	-428.539339	18.282581	80.199694	-30.956382	
1001	5.0050	546.246050	1348.855923	-60.344898	541.710017	1306.255401	-412.122269	535.757108	1413.918102	-246.933799	451.197831	1279.060952	-229.834724	573.020414	1104.542754	39.592568	785.259991	902.512427	-57.272947	548.966519	1039.810000	-506.558730	789.046764	901.947289	-438.478208	-19.264686	1207.839049	-214.969778	130.157402	1211.303487	-372.002220	141.400123	1219.183047	-50.310621	162.076385	1171.488475	-328.060130	172.241787	1162.647808	-85.189696	17.479669	1247.873544	-165.960564	10.961024	1254.431460	-258.919207	70.390139	1089.845208	-33.966718	106.801943	1111.147619	-406.032922	168.303138	944.987108	-23.438692	231.953535	883.131883	-26.529627	257.015238	800.439572	-40.480350	263.451204	902.506081	-31.522350	323.510453	701.605506	-55.345321	307.220872	686.168180	-161.126122	293.994825	571.790915	-24.558245	321.698365	488.208201	-41.824921	303.385178	403.844272	-49.738913	349.987296	494.211090	-71.099310	300.814913	283.470191	-57.801281	315.509093	306.505550	-145.472775	226.306759	253.709595	-104.877550	519.790652	247.781707	-114.120303	436.942134	210.914381	-41.512157	215.678845	1033.134229	-399.833808	298.266396	1006.416789	-389.095961	315.700903	1034.289819	-372.334138	358.089541	940.121792	-386.777638	430.681203	841.206625	-364.072198	419.242088	807.313503	-258.511140	124.338432	561.703699	-394.940411	156.371734	553.175749	-310.942196	60.676087	581.881708	-355.879487	177.204793	403.336678	-420.493186	346.777842	751.673360	-392.109231	296.374945	682.095489	-382.177642	218.615969	642.345509	-389.992232	313.076788	665.313907	-351.012925	258.607589	371.188421	-353.053229	-138.541217	945.938597	-225.777825	18.479535	81.187730	-428.564138	18.310827	80.210631	-30.937620	
1002	5.0100	548.769588	1350.301505	-63.678917	541.562025	1306.408237	-414.514661	536.526348	1415.039753	-250.382626	452.537985	1279.946399	-232.352859	575.936630	1106.715548	38.030937	786.272364	902.056228	-58.345504	548.740761	1039.195469	-506.535295	790.050766	902.608796	-438.304543	-18.319372	1209.422870	-211.664133	128.877977	1213.233035	-370.129642	145.559693	1218.937208	-48.541360	161.794696	1173.668798	-326.954001	174.500241	1161.742941	-84.241426	19.654417	1248.379225	-162.669890	11.579463	1255.627451	-255.282570	71.877829	1089.469420	-32.896020	106.853484	1115.195378	-404.819929	165.598532	942.597401	-22.760449	227.392692	878.904207	-26.278635	249.231782	795.759390	-39.989224	259.294000	897.294470	-31.735332	313.633001	694.883232	-55.735684	295.376972	680.003667	-161.367965	284.931442	564.911589	-24.318153	313.560687	481.655456	-41.536937	296.155402	397.059106	-49.384427	341.756676	487.820232	-70.911986	294.786243	276.666806	-57.290528	309.260752	299.674028	-145.028436	220.622399	248.104934	-104.355899	514.050156	237.737117	-114.303485	430.803572	202.218764	-41.359212	216.605978	1038.711238	-399.024864	299.605882	1013.135328	-388.361126	316.494167	1041.313711	-371.221070	360.754299	948.126570	-386.576383	434.636893	849.794801	-362.904514	424.410858	815.729281	-258.124872	129.201614	570.225514	-394.199810	161.225051	561.803124	-310.198279	64.751432	589.336722	-355.115445	184.291452	413.095188	-420.749544	351.148234	761.049112	-391.695018	300.852204	691.096267	-381.587734	223.110506	651.309286	-389.171253	317.885786	673.902083	-350.682698	265.804001	381.647739	-352.731103	-138.467657	946.005476	-225.480380	18.531306	81.308107	-428.519287	18.344770	80.251168	-30.915822	
1003	5.0150	551.420721	1351.773118	-67.142614	541.299466	1306.740225	-417.031926	537.269245	1416.069086	-253.928238	453.926469	1280.719770	-234.846040	578.924657	1108.891315	36.420828	786.905825	900.705432	-58.574432	548.378312	1038.604754	-506.723270	790.973431	903.224478	-438.162705	-11.830076	1207.751371	-215.770947	127.816055	1215.214330	-368.550746	149.697322	1218.978088	-47.200151	161.543972	1175.887446	-325.835068	176.760094	1161.053986	-83.336366	21.780823	1249.087534	-159.300270	12.078919	1256.995498	-251.892036	73.288245	1089.553555	-31.882570	106.885601	1119.202784	-403.534846	162.641870	940.625296	-22.095550	222.493230	874.902403	-25.943363	241.242110	791.014214	-39.689794	254.886299	892.339160	-31.747237	303.097990	688.770741	-55.809131	283.522062	673.825853	-161.270307	275.540892	558.376105	-23.808779	304.862093	475.519673	-41.086065	288.301196	390.762374	-48.830397	332.936690	482.068391	-70.404570	288.419720	270.290650	-56.858110	302.792636	293.235341	-144.576060	214.567318	242.841699	-103.974278	507.757107	228.158458	-114.358292	424.086376	194.006795	-41.115967	217.388621	1044.097679	-398.416906	301.019011	1020.150172	-388.113856	316.994328	1048.166725	-369.933040	363.155113	956.120279	-386.536944	438.728732	858.472046	-362.778360	429.138227	825.298974	-257.069057	134.126303	578.078661	-393.156451	166.387750	570.076818	-309.538871	69.553894	596.331788	-354.150501	191.518428	422.163848	-420.590554	355.555371	770.161392	-391.544828	305.432306	699.939552	-381.385799	227.722455	660.007821	-388.514560	322.800057	682.434380	-350.794630	274.376296	391.617598	-352.248071	-138.304401	946.138877	-225.223517	18.575636	81.460726	-428.479286	18.382290	80.289274	-30.881201	
